<svg width="180" height="180" viewBox="0 0 180 180" fill="none" xmlns="http://www.w3.org/2000/svg">
<mask id="mask0_6113_92902" style="mask-type:alpha" maskUnits="userSpaceOnUse" x="0" y="0" width="180" height="180">
<rect width="180" height="180" fill="black"/>
</mask>
<g mask="url(#mask0_6113_92902)">
<rect width="180" height="180" rx="16" fill="black"/>
<path d="M48.774 109.468C51.3601 110.391 54.0301 111.061 56.746 111.467C55.1204 269.54 71.7522 460.096 73.5029 467.155C71.2847 471.002 70.1201 475.365 70.1265 479.805C70.1141 482.237 70.4618 484.658 71.1582 486.988C64.0303 468.248 47.9612 283.97 48.774 109.468Z" fill="white"/>
<path d="M123.448 101.791L131.453 101.791C132.614 127.152 135.879 148.641 135.879 170.723C135.879 269.169 126.147 462.065 120.874 484.553L120.277 486.958L119.932 488.332L112.272 486.239L112.555 485.146L113.057 483.147C114.093 478.837 115.317 472.778 116.604 465.126C123.04 425.741 128.627 217.697 123.448 101.791Z" fill="white"/>
<path d="M131.873 32.8838C131.873 32.8838 78.4045 -0.423952 49.4219 34.3183L47.0171 113.596C51.0293 115.114 55.1277 116.395 59.291 117.432C62.5358 117.953 65.8549 117.772 69.0234 116.9C72.1919 116.029 75.1356 114.487 77.655 112.379C81.0902 109.284 83.5204 105.234 84.6334 100.749C85.7465 96.2648 85.4915 91.5504 83.9013 87.2115L83.7451 86.7437C79.1338 73.6946 76.5124 60.0276 75.9685 46.2006C75.8123 38.2167 82.2148 35.5659 88.461 35.4412C91.375 35.3374 94.2731 35.9139 96.9247 37.1252C99.831 38.5065 102.248 40.7378 103.854 43.5229C105.461 46.308 106.181 49.5153 105.919 52.7187C105.792 53.7903 105.388 54.8105 104.748 55.6796C104.107 56.5488 103.252 57.2371 102.265 57.6774C102.265 57.6774 96.019 60.609 93.8953 61.7629C91.0626 63.1938 88.8388 65.5933 87.6293 68.5241C86.4197 71.455 86.3048 74.7222 87.3055 77.7306C90.6338 86.2076 96.1772 93.6386 103.358 99.2496C106.882 102.217 110.654 104.878 114.633 107.202L135.495 106.828L131.873 32.8838Z" fill="white"/>
</g>
</svg>
